<svg width="512" height="512" viewBox="0 0 512 512" fill="none" xmlns="http://www.w3.org/2000/svg">
<g clip-path="url(#clip0_189_345)">
<path d="M254.63 -0.167784C257.002 -0.169775 259.374 -0.186369 261.747 -0.203467C275.822 -0.251301 289.741 0.758849 303.52 3.74511C304.858 4.02948 304.858 4.02948 306.223 4.31958C313.693 5.96299 321.068 7.92145 328.43 9.98625C329.471 10.2766 330.512 10.567 331.584 10.8661C367.816 21.3268 400.432 42.9476 427.977 68.1636C429.698 69.7245 431.459 71.2078 433.256 72.6813C436.098 75.0888 438.492 77.7478 440.902 80.5784C442.852 82.8302 444.893 84.9816 446.937 87.1494C470.265 112.72 488.738 145.061 499.207 177.93C499.403 178.54 499.599 179.151 499.801 179.78C501.226 184.28 502.53 188.807 503.768 193.362C504.062 194.443 504.062 194.443 504.363 195.545C516.068 239.258 514.09 287.297 499.492 330.156C499.268 330.82 499.043 331.483 498.812 332.167C494.009 345.961 487.835 359.31 480.967 372.199C480.652 372.792 480.338 373.384 480.013 373.995C473.052 386.989 464.844 398.969 455.43 410.327C454.29 411.783 453.15 413.239 452.01 414.695C440.528 428.936 427.196 442.882 412.565 453.901C412.078 454.273 411.592 454.645 411.09 455.029C373.316 483.838 330.203 502.561 283.057 509.277C282.32 509.383 281.583 509.49 280.823 509.599C234.613 516.004 186.165 506.716 144.428 486.582C143.464 486.123 143.464 486.123 142.479 485.655C122.04 475.827 103.086 462.234 86.4751 446.887C84.4887 445.057 82.4685 443.286 80.4151 441.532C74.1393 436.073 68.7125 430.202 63.5034 423.727C61.5984 421.42 59.6132 419.252 57.5574 417.078C28.8515 385.519 8.43194 338.185 3.45553 296.082C3.15165 293.203 3.15165 293.203 2.15161 290.497C0.175668 279.601 0.151036 268.623 0.156551 257.589C0.155807 256.89 0.155063 256.192 0.154297 255.472C0.161554 195.075 21.7719 133.416 62.3455 88.0572C62.8123 87.5157 63.279 86.9743 63.7599 86.4164C73.4893 75.1595 84.1913 64.3578 96.0906 55.3763C97.0006 54.6578 97.9105 53.9393 98.8481 53.199C110.894 43.7171 123.791 35.685 137.132 28.1423C137.7 27.817 138.269 27.4916 138.855 27.1565C160.671 14.7448 185.441 7.10585 210.094 2.72384C211.639 2.43421 211.639 2.43421 213.215 2.13873C226.836 -0.2052 240.843 -0.169071 254.63 -0.167784Z" fill="#FAFAFA"/>
<path d="M244.491 23.4496C245.308 23.4466 246.124 23.4436 246.965 23.4405C248.684 23.4359 250.404 23.4338 252.123 23.4339C254.692 23.4319 257.261 23.4155 259.83 23.3982C275.104 23.3485 289.842 24.3548 304.66 28.2546C305.737 28.5314 306.814 28.8083 307.923 29.0935C324.497 33.4504 340.6 38.8096 356.019 46.2971C356.644 46.5972 357.269 46.8972 357.913 47.2063C377.763 56.8427 395.889 69.8835 411.963 84.9035C413.927 86.7208 415.921 88.4481 417.98 90.1553C436.575 106.279 450 127.605 461.814 148.879C462.151 149.483 462.487 150.088 462.833 150.71C468.866 161.715 473.123 173.395 477.319 185.191C477.704 186.253 478.09 187.316 478.487 188.411C488.758 218.916 490.629 255.155 485.527 286.865C485.284 288.4 485.284 288.4 485.036 289.966C481.056 314.251 474.591 350.402 456.342 368.567C452.296 368.198 448.358 367.544 444.372 366.776C423.365 362.806 402.297 362.446 381.257 366.366C364.605 369.463 364.605 369.463 359.097 366.07C355.213 362.408 354.761 359.377 354.594 354.099C354.589 343.397 357.654 333.227 360.358 322.953C362.433 315.068 364.45 307.168 366.458 299.265C367.171 296.474 367.898 293.686 368.626 290.898C371.607 279.333 373.821 267.865 375.172 255.999C375.347 254.513 375.347 254.513 375.526 252.997C376.439 243.489 376.319 233.878 376.353 224.336C376.363 222.276 376.382 220.216 376.409 218.156C376.947 177.054 364.791 136.235 335.762 106.045C312.211 82.3738 281.935 68.932 248.342 68.7085C220.757 68.6704 195.656 76.7149 174.525 94.4106C173.825 94.9842 173.825 94.9842 173.111 95.5693C151.733 113.237 138.934 140.552 134.677 167.545C134.443 170.142 134.345 172.658 134.314 175.262C134.042 194.623 127.608 205.934 115.243 220.595C114.825 221.095 114.407 221.595 113.976 222.111C108.607 228.465 102.632 233.636 96.0906 238.751C94.494 240.093 92.898 241.436 91.3025 242.779C80.8868 251.205 69.6733 257.625 57.7355 263.677C45.179 269.387 45.179 269.387 36.8087 279.602C36.2072 284.429 36.1732 288.299 38.3478 292.708C42.7293 297.541 46.5876 299.993 53.2491 300.669C55.2782 300.759 57.2934 300.78 59.3245 300.765C60.0764 300.76 60.8284 300.755 61.6032 300.75C80.4428 300.392 98.6757 295.455 116.155 288.68C117.485 288.213 117.485 288.213 118.841 287.737C136.652 281.334 153.145 270.847 168.918 260.545C177.51 255.091 177.51 255.091 180.909 255.091C180.909 255.691 180.909 256.29 180.909 256.907C181.707 256.893 182.506 256.879 183.328 256.864C226.591 256.193 226.591 256.193 238.235 266.588C246.02 274.968 247.218 284.179 246.992 295.148C246.528 303.85 243.546 311.578 240.191 319.545C239.854 320.362 239.516 321.178 239.169 322.019C232.603 337.564 223.431 351.205 213.742 364.935C213.18 365.749 212.617 366.563 212.038 367.401C210.593 369.488 209.125 371.556 207.643 373.616C207.036 374.491 207.036 374.491 206.416 375.384C204.018 378.608 202.225 379.879 198.304 380.708C193.907 382.029 190.032 384.843 186.154 387.233C184.748 388.094 184.748 388.094 183.313 388.972C176.894 392.954 170.996 397.068 165.405 402.155C164.627 402.834 163.848 403.513 163.046 404.212C160.762 406.219 158.518 408.263 156.285 410.325C155.688 410.859 155.092 411.393 154.478 411.943C143.65 422.076 135.33 435.208 128.924 448.453C115.217 444.013 103.371 431.04 93.3545 421.219C92.4054 420.308 91.4554 419.398 90.5045 418.489C67.4202 396.086 47.6739 365.058 37.7208 334.524C37.4941 333.837 37.2674 333.15 37.0339 332.442C19.8812 279.465 20.0531 222.113 39.5448 169.758C39.887 168.829 40.2291 167.9 40.5816 166.943C44.0462 158.158 48.6673 149.875 53.2253 141.616C53.5984 140.94 53.9715 140.264 54.356 139.567C59.8928 129.635 66.2456 120.584 73.2899 111.659C74.2933 110.369 74.2933 110.369 75.317 109.052C84.2234 97.7552 94.0765 87.268 105.371 78.3149C107.085 76.9439 108.775 75.5416 110.437 74.1092C146.362 43.1846 196.92 23.5132 244.491 23.4496Z" fill="#09090B"/>
<path d="M245.378 77.8438C246.333 77.8492 247.287 77.8547 248.271 77.8604C256.05 77.9586 263.53 78.5779 271.2 79.8863C272.239 80.0419 273.279 80.1976 274.349 80.3579C283.702 82.0051 291.909 85.7603 300.385 89.8721C301.349 90.3332 302.313 90.7943 303.306 91.2693C309.72 94.5343 315.023 98.8063 320.45 103.489C321.087 104.012 321.724 104.535 322.38 105.074C340.493 120.171 352.176 141.402 359.667 163.404C360.169 164.821 360.169 164.821 360.682 166.266C362.719 172.348 364.08 178.511 365.31 184.794C365.462 185.566 365.615 186.338 365.772 187.133C367.801 198.008 368.061 208.887 368.046 219.915C368.046 220.926 368.046 220.926 368.045 221.957C368.031 230.604 367.848 239.207 367.134 247.83C367.038 249.003 367.038 249.003 366.941 250.199C365.697 263.23 363.069 275.991 359.802 288.653C359.265 290.734 358.737 292.817 358.211 294.9C356.114 303.163 353.853 311.364 351.458 319.546C347.845 332.079 345.011 344.804 343.25 357.73C337.682 394.262 303.253 426.235 274.906 447.098C270.497 450.275 265.921 453.087 261.168 455.716C260.506 456.083 259.844 456.45 259.162 456.827C245.429 464.356 231.187 470.576 216.79 476.723C216.055 477.041 215.319 477.36 214.562 477.688C213.919 477.964 213.276 478.241 212.614 478.525C210.853 479.313 210.853 479.313 209.068 480.964C206.329 482.691 204.093 481.711 200.974 481.135C198.461 480.49 195.985 479.743 193.506 478.978C187.921 477.291 182.337 475.773 176.641 474.486C174.525 473.872 174.525 473.872 171.789 472.057C173.422 453.627 182.789 435.728 190.941 419.404C191.3 418.682 191.659 417.961 192.029 417.217C200.909 399.672 212.801 383.4 224.305 367.48C227.04 363.684 229.648 359.842 232.097 355.858C232.47 355.256 232.843 354.654 233.227 354.034C234.341 352.226 235.444 350.413 236.543 348.596C237.04 347.774 237.04 347.774 237.548 346.935C250.616 325.189 260.111 301.806 253.918 276.213C251.284 268.066 246.926 260.02 239.166 255.879C223.86 248.327 208.688 248.3 191.853 248.737C192.868 245.707 193.591 245.132 196.015 243.177C201.757 238.315 207.196 233.074 210.094 226.042C209.523 225.856 208.951 225.67 208.363 225.478C207.245 225.112 207.245 225.112 206.104 224.737C205.363 224.495 204.623 224.253 203.859 224.003C201.886 223.319 201.886 223.319 200.062 222.411C199.864 223.535 199.864 223.535 199.663 224.681C195.871 233.135 186.027 238.01 178.438 242.862C176.147 244.328 173.865 245.806 171.582 247.283C156.635 256.907 141.339 265.605 125.275 273.248C124.404 273.669 123.532 274.09 122.634 274.524C115.584 277.862 108.49 280.552 101.05 282.893C99.9446 283.244 98.8397 283.594 97.7013 283.955C83.6052 288.323 69.233 291.446 54.422 291.631C52.7238 291.666 52.7238 291.666 50.9912 291.702C47.4364 291.375 45.293 290.56 42.2807 288.681C39.9545 285.208 39.9873 283.74 40.4566 279.603C41.7679 276.742 43.3247 274.085 45.0167 271.432C45.3177 271.432 45.6187 271.432 45.9288 271.432C45.9523 272.056 45.9758 272.68 46 273.322C46.0518 274.14 46.1035 274.958 46.1568 275.801C46.2203 277.018 46.2203 277.018 46.285 278.259C46.6581 280.598 46.6581 280.598 48.4226 282.11C57.8563 287.242 73.915 284.651 84.12 282.95C84.7633 282.843 85.4066 282.737 86.0694 282.627C89.8818 281.917 93.3723 280.815 96.9775 279.402C98.8514 278.685 100.735 278.062 102.649 277.461C111.78 274.581 120.376 271.205 128.923 266.893C129.646 266.532 130.369 266.17 131.114 265.797C152.543 255.023 173.614 242.801 190.941 226.042C189.908 222.955 189.252 222.523 186.666 220.709C180.938 216.657 176.639 213.023 172.929 207.092C172.402 206.293 172.402 206.293 171.864 205.478C167.995 199.416 166.875 193.527 166.887 186.439C166.885 185.707 166.884 184.975 166.883 184.22C167.034 175.289 168.907 166.642 170.877 157.957C170.19 158.497 169.504 159.036 168.796 159.592C162.999 164.108 157.106 168.442 151.04 172.596C150.399 173.036 149.757 173.476 149.097 173.93C144.547 177.021 144.547 177.021 143.516 177.021C143.015 167.25 144.069 159.159 147.164 149.787C147.484 148.808 147.804 147.828 148.133 146.819C156.827 122.451 174.759 100.528 198.156 88.9679C212.973 82.0324 228.966 77.6908 245.378 77.8438Z" fill="#020303"/>
<path d="M439.926 390.355C439.926 393.079 439.926 393.079 438.818 394.384C438.299 394.852 437.781 395.32 437.247 395.802C434.557 398.362 432.204 401.013 429.893 403.916C421.439 414.327 412.32 423.973 401.62 432.114C400.648 432.898 399.678 433.684 398.71 434.472C390.651 440.995 382.182 446.662 373.348 452.086C372.183 452.807 372.183 452.807 370.994 453.542C362.017 459.065 352.99 464.267 343.365 468.597C342.634 468.926 341.903 469.255 341.149 469.594C336.74 471.505 332.441 472.835 327.746 473.873C332.692 456.733 351.459 437.674 365.139 426.668C366.055 425.914 366.971 425.16 367.915 424.384C387.763 408.275 409.69 398.32 434.411 391.987C436.266 391.504 438.106 390.959 439.926 390.355Z" fill="#050505"/>
<path d="M197.325 233.305C197.325 234.203 197.325 235.102 197.325 236.028C191.221 242.089 172.274 258.723 163.579 258.723C163.579 259.322 163.579 259.921 163.579 260.539C164.181 260.838 164.783 261.138 165.404 261.447C164.04 265.083 162.059 266.267 158.727 268.156C157.738 268.722 156.748 269.288 155.728 269.871C154.66 270.468 153.591 271.064 152.521 271.659C151.433 272.273 150.345 272.887 149.257 273.501C138.31 279.655 127.523 285.443 115.57 289.454C112.546 290.483 109.599 291.635 106.635 292.822C91.5784 298.582 75.5629 301.558 59.4372 301.73C58.7503 301.743 58.0634 301.755 57.3557 301.768C51.4388 301.719 45.6693 300.715 41.0256 296.876C40.5365 296.25 40.0474 295.623 39.5435 294.978C39.0357 294.35 38.5278 293.722 38.0045 293.074C35.0391 288.937 35.1821 284.526 35.8954 279.603C38.0258 275.362 41.066 272.238 45.0157 269.617C45.6177 269.617 46.2196 269.617 46.8398 269.617C45.9917 272.149 45.1058 273.596 43.5907 275.744C41.3463 279.277 40.6312 281.722 41.3676 285.957C43.3911 288.596 44.5774 289.443 47.7518 290.496C91.844 293.601 135.32 269.68 170.9 246.677C174.156 244.585 177.211 242.723 180.908 241.475C180.306 242.673 179.704 243.871 179.084 245.106C185.998 242.06 191.593 238.196 197.325 233.305Z" fill="#F0F0F0"/>
<path d="M449.957 376.738C448.907 378.978 448.09 380.412 446.309 382.184C444.051 382.465 444.051 382.465 441.179 382.582C433.921 383.044 426.949 384.286 419.86 385.816C418.882 386.015 417.904 386.214 416.896 386.419C400.333 390.419 384.217 399.333 370.611 409.419C370.095 409.795 369.578 410.172 369.046 410.56C363.014 414.978 357.277 419.656 351.768 424.713C349.667 426.637 347.518 428.495 345.359 430.355C335.109 439.473 326.684 451.094 319.651 462.809C319.316 463.367 318.98 463.926 318.634 464.501C317.117 467.077 315.753 469.627 314.489 472.341C311.411 478.894 311.411 478.894 308.119 480.302C305.826 480.755 303.626 480.976 301.297 481.135C300.394 481.584 300.394 481.584 299.473 482.043C300.042 477.841 301.769 474.366 303.691 470.638C304.019 469.997 304.347 469.355 304.685 468.694C314.678 449.33 328.193 430.698 345.074 416.681C345.87 415.991 346.666 415.3 347.486 414.589C376.969 389.368 411.098 375.835 449.957 376.738Z" fill="#0A0B0B"/>
<path d="M193.677 391.262C194.279 391.561 194.881 391.861 195.502 392.17C195.191 392.546 194.881 392.923 194.561 393.311C178.273 413.922 167.348 441.417 160.844 466.609C155.347 466.177 151.025 463.707 146.252 461.162C146.793 456.51 148.965 452.799 151.154 448.737C151.561 447.979 151.968 447.221 152.387 446.44C159.827 432.733 167.941 420.319 178.173 408.51C178.836 407.742 179.499 406.975 180.182 406.184C181.204 405.016 182.232 403.853 183.268 402.698C184.531 401.276 185.745 399.824 186.951 398.354C189.088 395.835 191.305 393.556 193.677 391.262Z" fill="#080909"/>
<path d="M242.527 123.007C255.845 126.745 270.496 126.69 283.968 123.461C281.018 125.852 277.951 127.43 274.505 129.021C273.501 129.491 272.497 129.962 271.463 130.447C261.435 134.406 250.392 132.963 240.133 130.723C227.023 127.675 227.023 127.675 214.254 130.553C208.555 134.853 205.195 141.588 202.797 148.142C199.764 156.204 191.886 164.074 184.311 168.149C183.79 168.38 183.269 168.612 182.732 168.851C183.876 165.435 185.643 164.138 188.205 161.588C193.541 155.364 196.408 148.847 199.035 141.163C202.525 131.572 207.568 125.973 216.784 121.525C225.22 118.791 234.261 120.648 242.527 123.007Z" fill="#EEEEEE"/>
<path d="M162.668 247.83C163.571 248.279 163.571 248.279 164.493 248.738C163.891 249.337 163.289 249.936 162.668 250.553C162.969 251.153 163.27 251.752 163.581 252.369C151.899 259.35 140.226 266.315 128.011 272.341C127.186 272.75 127.186 272.75 126.345 273.168C104.463 283.83 78.916 291.326 54.422 291.631C52.7238 291.667 52.7238 291.667 50.9912 291.702C47.4364 291.375 45.293 290.56 42.2807 288.681C39.9545 285.208 39.9873 283.74 40.4566 279.603C41.7679 276.742 43.3247 274.086 45.0167 271.433C45.3177 271.433 45.6187 271.433 45.9288 271.433C45.9523 272.057 45.9758 272.68 46 273.323C46.0518 274.141 46.1035 274.959 46.1568 275.802C46.1991 276.613 46.2414 277.424 46.285 278.259C46.6581 280.599 46.6581 280.599 48.4226 282.11C57.8563 287.242 73.915 284.652 84.12 282.951C84.7633 282.844 85.4066 282.737 86.0694 282.627C89.8818 281.918 93.3723 280.816 96.9775 279.402C98.8514 278.686 100.735 278.063 102.649 277.461C111.78 274.582 120.376 271.205 128.923 266.894C129.656 266.527 130.389 266.161 131.144 265.783C140.47 261.094 149.587 256.237 158.293 250.471C159.72 249.54 161.191 248.677 162.668 247.83Z" fill="#131413"/>
<path d="M197.325 233.305C197.325 234.203 197.325 235.102 197.325 236.028C194.568 238.766 191.326 240.979 188.205 243.291C187.722 243.651 187.238 244.011 186.74 244.382C179.994 249.384 173.056 253.944 165.793 258.17C162.666 259.99 159.577 261.866 156.494 263.759C144.586 271.037 132.631 277.695 119.803 283.234C118.887 283.629 117.971 284.025 117.028 284.432C109.389 287.426 101.226 289.068 93.2524 290.942C91.4678 291.36 91.4678 291.36 89.706 292.312C82.5494 293.764 75.4998 294.297 68.2163 294.298C67.5221 294.298 66.8279 294.299 66.1126 294.3C62.6229 294.265 59.3532 294.055 55.9609 293.22C55.9609 292.92 55.9609 292.62 55.9609 292.312C56.9979 292.267 58.0348 292.223 59.1032 292.177C73.8532 291.493 87.4336 289.294 101.562 285.049C102.519 284.77 103.476 284.49 104.462 284.202C126.763 277.285 147.347 264.825 167.301 253.031C169.889 251.505 172.486 249.994 175.084 248.486C182.941 243.897 190.51 239.374 197.325 233.305Z" fill="#1C1D1C"/>
<path d="M179.085 241.475C179.987 241.924 179.987 241.924 180.909 242.382C180.307 243.281 179.705 244.18 179.085 245.106C179.987 245.555 179.987 245.555 180.909 246.014C173.624 250.27 166.326 254.502 159.02 258.723C158.1 259.255 157.181 259.788 156.233 260.337C137.396 271.216 118.343 281.208 97.2477 286.95C94.705 287.651 92.2123 288.431 89.7057 289.248C81.0602 291.814 72.0479 292.436 63.0858 292.992C62.3323 293.044 61.5788 293.096 60.8024 293.149C55.3735 293.435 55.3735 293.435 52.3125 291.404C52.8848 291.34 53.4572 291.277 54.0468 291.211C101.025 285.913 139.977 267.426 179.085 241.475Z" fill="#E4E5E5"/>
<path d="M288.528 90.7799C289.777 91.2016 291.026 91.6223 292.276 92.0423C309.026 97.8272 321.721 107.572 332.305 121.645C328.702 121.645 328.209 120.562 325.693 118.071C306.838 100.72 279.591 91.9194 254.33 91.1487C251.73 90.7288 250.911 90.0869 249.311 88.0565C261.088 84.149 277.124 86.6569 288.528 90.7799Z" fill="#EAEAEA"/>
<path d="M245.662 137.078C248.672 137.078 251.682 137.078 254.782 137.078C253.926 144.352 247.889 152.662 242.527 157.617C236.906 161.794 230.526 164.045 223.506 163.77C219.523 163.18 215.795 161.912 211.985 160.642C208.581 159.587 205.429 159.142 201.885 158.865C203.985 156.68 205.292 155.323 208.426 155.082C213.101 155.046 216.598 155.513 221.037 157.05C227.001 157.634 231.417 156.569 236.542 153.419C240.281 150.214 242.102 146.143 243.838 141.617C244.196 140.737 244.553 139.857 244.921 138.95C245.166 138.333 245.41 137.715 245.662 137.078Z" fill="#EFEFEF"/>
<path d="M288.529 85.334C300.776 88.7559 311.005 95.1386 320.45 103.49C321.082 104.011 321.715 104.532 322.367 105.068C327.714 109.511 332.267 114.643 336.866 119.83C336.565 120.729 336.264 121.628 335.954 122.554C335.051 122.554 334.149 122.554 333.218 122.554C332.767 123.453 332.767 123.453 332.306 124.369C331.874 123.508 331.441 122.647 330.995 121.76C320.752 104.14 301.788 95.5394 283.057 89.873C283.79 89.2926 284.524 88.7121 285.28 88.1141C286.956 86.781 286.956 86.781 288.529 85.334Z" fill="#1B1B1C"/>
<path d="M163.991 260.294C164.458 260.674 164.924 261.055 165.405 261.447C164.033 265.221 161.817 266.391 158.376 268.315C157.333 268.906 156.289 269.496 155.214 270.104C154.108 270.718 153.002 271.33 151.896 271.943C150.8 272.559 149.704 273.175 148.609 273.792C146.587 274.931 144.562 276.065 142.534 277.193C140.787 278.177 139.059 279.196 137.354 280.251C135.308 281.418 135.308 281.418 133.484 281.418C133.484 280.52 133.484 279.621 133.484 278.695C132.882 278.096 132.28 277.497 131.66 276.879C133.085 276.153 133.085 276.153 134.539 275.411C135.86 274.729 137.181 274.046 138.5 273.362C139.54 272.823 139.54 272.823 140.601 272.274C146.302 269.272 151.728 265.936 157.033 262.286C161.279 259.489 161.279 259.489 163.991 260.294Z" fill="#ECECEB"/>
<path d="M140.78 213.334C142.604 215.15 142.604 215.15 143.06 217.703C142.44 221.637 140.173 222.88 137.132 225.135C135.066 226.629 132.973 228.076 130.861 229.504C130.05 230.058 130.05 230.058 129.223 230.623C127.908 231.52 126.592 232.413 125.275 233.306C124.363 230.582 124.363 230.582 125.053 228.885C125.423 228.265 125.792 227.644 126.173 227.004C126.575 226.325 126.977 225.646 127.391 224.946C127.822 224.241 128.252 223.536 128.695 222.809C129.111 222.101 129.528 221.392 129.956 220.662C134.723 212.716 134.723 212.716 140.78 213.334Z" fill="#0F1010"/>
<path d="M162.669 247.83C163.271 248.13 163.873 248.429 164.493 248.738C163.891 249.337 163.289 249.936 162.669 250.553C163.12 251.452 163.12 251.452 163.581 252.369C152.239 259.188 140.901 265.779 128.924 271.433C128.322 270.235 127.72 269.036 127.1 267.802C127.659 267.519 128.218 267.237 128.794 266.946C138.907 261.817 148.933 256.707 158.383 250.426C159.78 249.512 161.221 248.663 162.669 247.83Z" fill="#1B1D1C"/>
<path d="M197.326 233.305C197.326 234.203 197.326 235.102 197.326 236.028C194.568 238.766 191.327 240.979 188.205 243.291C187.722 243.651 187.239 244.011 186.741 244.382C178.726 250.324 170.394 255.547 161.757 260.539C160.658 261.179 159.559 261.82 158.461 262.461C155.915 263.944 153.365 265.422 150.812 266.893C150.511 266.294 150.21 265.695 149.9 265.078C149.298 264.778 148.696 264.479 148.076 264.17C148.644 263.842 149.211 263.514 149.796 263.176C155.534 259.858 161.266 256.53 166.993 253.192C168.876 252.095 170.76 251 172.645 249.907C185.564 242.433 185.564 242.433 197.326 233.305Z" fill="#1D1E1E"/>
<path d="M108.858 279.604C108.858 280.203 108.858 280.802 108.858 281.419C109.46 282.018 110.062 282.617 110.682 283.235C109.603 283.531 108.524 283.827 107.412 284.132C105.956 284.533 104.5 284.933 103.044 285.334C101.909 285.645 101.909 285.645 100.751 285.963C96.9656 287.006 93.2117 288.092 89.4777 289.306C80.9242 291.864 71.9569 292.443 63.0858 292.994C61.9556 293.071 61.9556 293.071 60.8024 293.15C55.3735 293.436 55.3735 293.436 52.3125 291.405C52.8848 291.341 53.4572 291.278 54.0468 291.213C71.335 289.263 87.7531 286.81 104.074 280.667C107.034 279.604 107.034 279.604 108.858 279.604Z" fill="#DCDCDC"/>
<path d="M149.899 265.078C149.899 265.977 149.899 266.876 149.899 267.802C142.371 272.159 134.801 276.344 126.928 280.057C126.284 280.363 125.64 280.67 124.977 280.986C121.758 282.478 118.769 283.651 115.242 284.142C116.482 280.44 118.108 280.059 121.512 278.185C122.066 277.879 122.62 277.574 123.19 277.259C125.095 276.214 127.009 275.185 128.923 274.156C129.663 273.753 130.403 273.349 131.165 272.933C133.491 271.667 135.822 270.413 138.157 269.163C138.902 268.759 139.647 268.354 140.415 267.938C141.121 267.565 141.826 267.193 142.553 266.809C143.179 266.475 143.804 266.14 144.449 265.796C146.251 265.078 146.251 265.078 149.899 265.078Z" fill="#171717"/>
<path d="M224.686 135.262C224.725 136.775 224.723 138.289 224.686 139.801C223.277 141.204 221.795 140.881 219.841 140.993C217.117 141.296 215.61 141.593 213.172 142.922C211.161 146.651 212.114 150.27 212.83 154.326C211.024 153.727 209.218 153.128 207.357 152.511C207.388 145.889 209.127 141.85 213.742 137.078C217.504 133.909 219.966 134.249 224.686 135.262Z" fill="#E6E6E6"/>
<path d="M94.2662 288.68C93.3632 288.98 92.4603 289.28 91.5301 289.588C90.9281 290.487 90.3262 291.386 89.706 292.312C79.775 295.062 65.989 295.69 55.9609 293.219C55.9609 292.92 55.9609 292.62 55.9609 292.312C56.9979 292.267 58.0348 292.223 59.1032 292.177C73.8155 291.701 73.8155 291.701 88.1028 288.599C90.7035 287.745 91.7577 287.72 94.2662 288.68Z" fill="#2E2E2E"/>
<path d="M86.9696 288.682C82.0908 293.538 69.8429 292.577 63.0858 292.994C61.9564 293.071 61.9564 293.071 60.8042 293.15C55.3738 293.436 55.3738 293.436 52.3125 291.405C75.8098 288.154 75.8098 288.154 86.9696 288.682Z" fill="#C1C2C1"/>
<path d="M197.324 233.305C197.324 234.203 197.324 235.102 197.324 236.028C195.618 237.691 195.618 237.691 193.277 239.489C192.453 240.122 191.629 240.755 190.78 241.408C187.265 243.977 183.673 246.404 179.996 248.737C179.394 248.138 178.792 247.539 178.172 246.922C178.867 246.471 179.562 246.021 180.277 245.556C186.164 241.702 191.844 237.713 197.324 233.305Z" fill="#3E4040"/>
<path d="M126.187 277.05C126.788 277.293 127.39 277.537 128.011 277.787C128.011 278.387 128.011 278.986 128.011 279.603C126.226 280.363 124.44 281.119 122.652 281.872C121.161 282.504 121.161 282.504 119.638 283.149C117.066 284.142 117.066 284.142 115.242 284.142C116.467 280.486 118.334 279.666 121.555 277.734C123.45 276.88 123.45 276.88 126.187 277.05Z" fill="#111211"/>
<path d="M304.945 93.5039C308.406 93.8603 309.97 95.5405 312.241 98.0429C311.338 98.9416 310.435 99.8404 309.505 100.766C306.495 99.2684 303.486 97.7706 300.385 96.2273C301.589 95.6282 302.793 95.029 304.033 94.4117C304.334 94.1121 304.635 93.8126 304.945 93.5039Z" fill="#212123"/>
<path d="M95.1782 285.049C94.8773 285.948 94.5763 286.846 94.2662 287.772C83.7581 289.857 83.7581 289.857 78.7617 289.588C79.0627 288.989 79.3637 288.39 79.6737 287.772C82.2281 286.999 82.2281 286.999 85.4309 286.297C86.4808 286.061 87.5307 285.824 88.6123 285.581C91.5301 285.049 91.5301 285.049 95.1782 285.049Z" fill="#E0E0E0"/>
<path d="M167.228 252.369C167.228 252.969 167.228 253.568 167.228 254.185C163.616 255.982 160.004 257.78 156.283 259.632C158.347 254.496 158.347 254.496 161.755 252.937C162.395 252.63 163.034 252.324 163.693 252.008C165.403 251.462 165.403 251.462 167.228 252.369Z" fill="#EBEDEC"/>
<path d="M102.474 286.865C100.243 289.557 98.4187 290.093 95.0063 290.667C94.1845 290.81 93.3628 290.954 92.5161 291.103C91.5761 291.252 91.5761 291.252 90.6172 291.404C90.9182 290.505 91.2191 289.607 91.5292 288.681C92.4321 288.681 93.335 288.681 94.2653 288.681C94.2653 288.082 94.2653 287.482 94.2653 286.865C97.3463 286.098 99.4408 285.859 102.474 286.865Z" fill="#0C0C0C"/>
<path d="M161.755 259.631C163.693 260.482 163.693 260.482 165.403 261.446C164.662 263.205 164.662 263.205 163.579 265.078C162.676 265.377 161.774 265.677 160.843 265.985C160.843 265.386 160.843 264.787 160.843 264.17C159.037 264.17 157.232 264.17 155.371 264.17C159.703 260.652 159.703 260.652 161.755 259.631Z" fill="#E3E3E3"/>
<path d="M179.085 241.475C179.687 241.774 180.289 242.074 180.909 242.382C180.007 243.73 180.007 243.73 179.085 245.106C179.687 245.405 180.289 245.705 180.909 246.014C177.771 248.096 176.602 248.737 172.701 248.737C173.601 245.725 174.24 244.411 176.805 242.496C177.558 242.159 178.31 241.822 179.085 241.475Z" fill="#EAEAEB"/>
<path d="M134.738 265.362C135.227 265.568 135.716 265.774 136.22 265.986C135.919 266.885 135.618 267.784 135.308 268.71C132.059 270.242 132.059 270.242 128.924 271.433C128.322 270.235 127.72 269.037 127.1 267.802C132.039 265.009 132.039 265.009 134.738 265.362Z" fill="#1F201F"/>
<path d="M117.98 277.787C117.98 278.386 117.98 278.985 117.98 279.602C114.461 281.557 112.005 282.682 107.947 282.326C108.631 280.567 108.631 280.567 109.771 278.694C112.457 277.588 115.103 277.707 117.98 277.787Z" fill="#EBECEC"/>
<path d="M179.997 248.737C173.563 254.22 173.563 254.22 169.965 254.071C169.363 253.808 168.761 253.546 168.141 253.276C175.726 247.404 175.726 247.404 179.997 248.737Z" fill="#272827"/>
<path d="M162.667 247.83C163.269 248.13 163.871 248.429 164.491 248.738C163.89 249.337 163.288 249.936 162.667 250.553C162.968 251.153 163.269 251.752 163.579 252.369C159.361 255.092 159.361 255.092 156.283 255.092C156.397 253.504 156.397 253.504 157.195 251.461C159.988 249.419 159.988 249.419 162.667 247.83Z" fill="#171918"/>
<path d="M324.097 112.566C327.413 115.683 329.899 118.737 332.306 122.552C329.577 121.314 327.481 119.875 325.238 117.9C324.678 117.411 324.118 116.921 323.542 116.417C323.123 116.045 322.705 115.673 322.273 115.29C322.875 114.391 323.477 113.492 324.097 112.566Z" fill="#CBCBCB"/>
<path d="M137.132 274.156C137.734 274.456 138.336 274.755 138.956 275.064C138.272 277.731 138.272 277.731 137.132 280.511C135.194 281.305 135.194 281.305 133.484 281.419C133.484 280.52 133.484 279.621 133.484 278.695C132.882 278.096 132.28 277.497 131.66 276.88C133.452 275.91 135.28 275.005 137.132 274.156Z" fill="#E0E0DF"/>
<path d="M94.2667 288.681C93.3638 288.98 92.4609 289.28 91.5306 289.588C90.6277 290.936 90.6277 290.936 89.7065 292.312C86.8565 292.482 86.8565 292.482 84.2344 292.312C84.5353 291.413 84.8363 290.514 85.1464 289.588C88.4777 288.115 90.7952 287.351 94.2667 288.681Z" fill="#1D1D1D"/>
<path d="M130.748 370.383C132.554 370.832 132.554 370.832 134.396 371.291C134.095 372.788 133.794 374.286 133.484 375.83C132.28 375.53 131.076 375.23 129.836 374.922C130.137 373.424 130.438 371.926 130.748 370.383Z" fill="#EBEBEB"/>
<path d="M148.987 259.632C146.234 262.794 143.908 263.982 139.867 265.079C141.452 260.347 144.136 259.23 148.987 259.632Z" fill="#0E0F0F"/>
<path d="M193.677 391.262C194.279 391.561 194.881 391.861 195.501 392.17C194.629 393.343 193.754 394.516 192.879 395.687C192.392 396.34 191.906 396.993 191.404 397.666C190.029 399.432 190.029 399.432 188.205 401.248C188.205 400.648 188.205 400.049 188.205 399.432C187.603 399.132 187.001 398.833 186.381 398.524C187.077 398 187.773 397.476 188.49 396.935C190.633 395.15 192.12 393.545 193.677 391.262Z" fill="#494949"/>
<path d="M397.061 318.639C398.565 318.639 400.07 318.639 401.621 318.639C401.32 320.137 401.019 321.634 400.709 323.178C399.505 323.178 398.301 323.178 397.061 323.178C397.061 321.68 397.061 320.182 397.061 318.639Z" fill="#BFBFBF"/>
<path d="M121.626 274.156C122.228 274.456 122.83 274.755 123.45 275.064C123.45 275.963 123.45 276.861 123.45 277.787C121.645 278.387 119.839 278.986 117.978 279.603C117.978 279.004 117.978 278.405 117.978 277.787C117.075 277.488 116.172 277.188 115.242 276.88C117.343 275.911 119.474 275.006 121.626 274.156Z" fill="#D9DADA"/>
<path d="M188.204 399.434C187.903 400.931 187.602 402.429 187.292 403.973C186.389 403.973 185.486 403.973 184.556 403.973C182.561 405.731 182.561 405.731 180.908 407.604C180.306 407.304 179.704 407.005 179.084 406.696C180.256 405.48 181.436 404.271 182.618 403.065C183.602 402.054 183.602 402.054 184.606 401.022C186.38 399.434 186.38 399.434 188.204 399.434Z" fill="#181818"/>
<path d="M283.968 124.369C282.792 124.978 281.613 125.582 280.434 126.184C279.778 126.521 279.122 126.858 278.446 127.206C276.672 128 276.672 128 274.847 128C274.847 127.401 274.847 126.802 274.847 126.184C274.246 125.885 273.644 125.585 273.023 125.276C274.332 124.946 275.644 124.627 276.957 124.312C277.687 124.133 278.417 123.954 279.169 123.769C281.232 123.461 281.232 123.461 283.968 124.369Z" fill="#C8C8C8"/>
<path d="M170.876 253.277C170.876 253.876 170.876 254.476 170.876 255.093C168.767 256.625 168.767 256.625 166.316 257.816C165.413 257.517 164.51 257.217 163.58 256.909C166.772 253.277 166.772 253.277 170.876 253.277Z" fill="#151616"/>
<path d="M97.9137 283.519C99.7378 284.143 99.7378 284.143 101.562 285.958C99.4551 286.258 97.3483 286.557 95.1777 286.866C94.8767 285.967 94.5757 285.069 94.2656 284.143C96.0897 283.235 96.0897 283.235 97.9137 283.519Z" fill="#CFCFCF"/>
<path d="M95.1771 285.049C94.8761 285.948 94.5752 286.846 94.2651 287.772C92.1583 287.772 90.0515 287.772 87.8809 287.772C87.8809 287.173 87.8809 286.574 87.8809 285.957C90.5188 285.206 92.3383 285.049 95.1771 285.049Z" fill="#EDEDED"/>
<path d="M46.8411 269.617C45.625 273.248 43.6528 274.009 40.4569 275.972C39.8549 275.672 39.253 275.373 38.6328 275.064C39.654 274.151 40.6812 273.244 41.7109 272.341C42.568 271.582 42.568 271.582 43.4423 270.809C45.017 269.617 45.017 269.617 46.8411 269.617Z" fill="#D7D8D7"/>
<path d="M386.115 471.148C386.415 471.748 386.716 472.347 387.027 472.964C383.098 476.539 383.098 476.539 379.901 476.822C379.243 476.747 378.585 476.672 377.906 476.595C380.533 474.562 383.24 472.817 386.115 471.148Z" fill="#333333"/>
<path d="M175.437 334.979C176.34 335.278 177.243 335.578 178.174 335.886C178.174 337.085 178.174 338.283 178.174 339.518C176.97 339.518 175.766 339.518 174.525 339.518C174.826 338.02 175.127 336.522 175.437 334.979Z" fill="#E2E2E2"/>
<path d="M45.0173 271.434C45.3183 271.434 45.6193 271.434 45.9294 271.434C45.9294 273.83 45.9294 276.227 45.9294 278.696C44.7255 278.396 43.5216 278.097 42.2812 277.788C43.9913 273.476 43.9913 273.476 45.0173 271.434Z" fill="#525252"/>
<path d="M163.58 255.092C164.182 255.391 164.784 255.691 165.404 256C165.404 256.898 165.404 257.797 165.404 258.723C163.899 259.322 162.394 259.921 160.844 260.539C160.844 259.939 160.844 259.34 160.844 258.723C160.242 258.423 159.64 258.124 159.02 257.815C161.186 256.397 161.186 256.397 163.58 255.092Z" fill="#262827"/>
<path d="M155.373 252.369C155.975 252.669 156.577 252.968 157.197 253.277C156.896 253.876 156.595 254.475 156.285 255.093C156.887 255.392 157.489 255.692 158.109 256C155.108 256.996 153.81 256.726 150.812 256C152.317 254.802 153.822 253.604 155.373 252.369Z" fill="#262626"/>
<path d="M324.097 108.029C325 108.329 325.903 108.628 326.834 108.937C326.834 110.735 326.834 112.532 326.834 114.384C325.329 113.186 323.824 111.987 322.273 110.753C323.185 108.937 323.185 108.937 324.097 108.029Z" fill="#121212"/>
<path d="M207.357 152.51C209.494 152.742 211.624 153.048 213.742 153.418C214.043 154.017 214.344 154.616 214.654 155.233C212.246 155.233 209.838 155.233 207.357 155.233C207.357 154.334 207.357 153.436 207.357 152.51Z" fill="#5B5B5B"/>
</g>
<defs>
<clipPath id="clip0_189_345">
<rect width="512" height="512" rx="58" fill="white"/>
</clipPath>
</defs>
</svg>
