<svg width="298" height="297" viewBox="0 0 298 297" fill="none" xmlns="http://www.w3.org/2000/svg">
<g clip-path="url(#clip0_42_260)">
<path d="M259.934 37.1051C275.534 52.7053 280.72 74.0801 279.161 94.0701C277.609 113.972 269.314 133.593 256.451 146.457L163.888 239.019C163.887 239.02 163.887 239.02 158.23 233.363L163.887 239.02L161.123 241.784L157.244 241.302L77.0215 231.334L48.4327 259.922C45.3085 263.046 40.2431 263.047 37.119 259.922C33.9951 256.798 33.9952 251.733 37.119 248.609L65.7064 220.021L55.7372 139.796L55.2552 135.916L58.0194 133.152L63.6762 138.809L58.0201 133.152L150.583 40.5889C163.096 28.0755 182.723 19.8092 202.652 18.1617C222.673 16.5066 244.282 21.4538 259.934 37.1051ZM72.0973 141.702L80.0474 205.68L116.14 169.588V97.6594L72.0973 141.702ZM127.434 180.921L91.3632 216.992L155.338 224.942L198.823 181.457L127.434 180.921ZM164.009 144.346L143.315 165.04L214.704 165.576L235.398 144.882L164.009 144.346ZM248.62 48.4189C237.182 36.9814 220.721 32.7221 203.97 34.1068C187.126 35.4993 171.28 42.5197 161.896 51.9026L132.14 81.6591V153.588L155.06 130.668C155.083 130.645 155.105 130.622 155.128 130.6L199.872 85.8562L200.171 85.5723C203.311 82.735 208.159 82.8298 211.185 85.8562C214.212 88.8827 214.307 93.7304 211.469 96.8709L211.185 97.1699L179.891 128.464L250.354 128.993C257.351 119.351 262.153 106.362 263.209 92.8264C264.503 76.231 260.109 59.9078 248.62 48.4189Z" fill="currentColor"/>
</g>
<defs>
<clipPath id="clip0_42_260">
<rect width="298" height="297" fill="white"/>
</clipPath>
</defs>
</svg>
